<svg id="Layer_1" data-name="Layer 1" xmlns="http://www.w3.org/2000/svg" viewBox="0 0 755 755"><defs><style>.cls-1{fill:#0085a1;}.cls-2{fill:#fff;}</style></defs><title>shipstation-icon-v2</title><rect class="cls-1" width="755" height="755"/><path class="cls-2" d="M613.92,518H338.58a85.16,85.16,0,0,0-63-63V152A19.61,19.61,0,0,0,256,132.36H141.07a19.61,19.61,0,1,0,0,39.22h95.29V455A84.94,84.94,0,1,0,338.58,557.26H613.92A19.61,19.61,0,1,0,613.92,518ZM256,583.41a45.76,45.76,0,1,1,45.76-45.76A45.82,45.82,0,0,1,256,583.41Z"/><path class="cls-2" d="M351.35,464.66H551.82a19.61,19.61,0,0,0,19.61-19.61V218.43a19.61,19.61,0,0,0-19.61-19.61H351.35a19.61,19.61,0,0,0-19.61,19.61V445.05A19.61,19.61,0,0,0,351.35,464.66ZM371,238h61v54.47a19.61,19.61,0,1,0,39.22,0V238h61v187.4H371V238Z"/></svg>