<svg width="750" height="750" viewBox="0 0 750 750" fill="none" xmlns="http://www.w3.org/2000/svg">
<path d="M375 497.084C307.631 497.084 252.986 442.245 252.986 375.104C252.986 307.755 307.631 253.125 375 253.125C442.369 253.125 497.014 307.755 497.014 375.104C497.014 442.245 442.369 497.084 375 497.084ZM728.535 432.294C735.126 431.302 740 425.639 740 418.974V331.026C740 324.361 735.126 318.698 728.535 317.706L651.763 306.152C646.452 305.353 642.152 301.466 640.617 296.32C635.1 277.809 627.744 259.941 618.549 242.901C616.002 238.18 616.289 232.398 619.471 228.078L665.556 165.492C669.505 160.13 668.943 152.687 664.233 147.979L601.987 85.7509C597.275 81.0406 589.828 80.4826 584.467 84.4384L522.067 130.482C517.747 133.67 511.961 133.962 507.239 131.407C490.222 122.2 472.378 114.745 453.894 109.323C448.703 107.8 444.765 103.482 443.96 98.1323L432.415 21.4638C431.422 14.8737 425.76 10 419.096 10H331.113C324.449 10 318.786 14.8737 317.794 21.4638L306.237 98.2088C305.438 103.52 301.55 107.82 296.403 109.354C277.889 114.869 260.016 122.222 242.973 131.413C238.248 133.961 232.462 133.67 228.142 130.482L165.742 84.4384C160.381 80.4826 152.933 81.0405 148.222 85.7509L85.7668 148.188C81.0576 152.896 80.4953 160.338 84.4436 165.7L130.506 228.254C133.699 232.59 133.975 238.397 131.405 243.13C122.225 260.034 114.88 277.888 109.371 296.504C107.844 301.663 103.538 305.563 98.2169 306.364L21.4649 317.915C14.8743 318.907 10 324.569 10 331.234V419.183C10 425.848 14.8743 431.51 21.4649 432.502L98.2169 444.053C103.538 444.854 107.844 448.754 109.371 453.913C114.879 472.525 122.222 490.375 131.399 507.276C133.971 512.014 133.692 517.829 130.489 522.166L84.4642 584.505C80.5052 589.867 81.0635 597.319 85.7773 602.031L148.013 664.249C152.725 668.959 160.172 669.517 165.533 665.562L227.933 619.518C232.253 616.33 238.04 616.038 242.761 618.593C259.778 627.8 277.622 635.255 296.106 640.677C301.297 642.2 305.235 646.518 306.04 651.868L317.585 728.536C318.578 735.126 324.24 740 330.904 740H418.887C425.551 740 431.214 735.126 432.206 728.536L443.751 651.868C444.557 646.518 448.495 642.2 453.686 640.677C472.173 635.254 490.021 627.797 507.041 618.587C511.757 616.035 517.536 616.323 521.855 619.502L584.47 665.582C589.831 669.527 597.269 668.965 601.977 664.259L664.233 602.021C668.943 597.313 669.505 589.87 665.556 584.508L619.494 521.954C616.301 517.618 616.025 511.811 618.601 507.082C627.798 490.204 635.244 472.378 640.66 453.793C642.177 448.59 646.5 444.64 651.859 443.833L728.535 432.294Z" fill="#D6663E"/>
</svg>
