<svg width="750" height="750" viewBox="0 0 750 750" fill="none" xmlns="http://www.w3.org/2000/svg">
<path d="M172.1 361.3L362 236C369.4 231 381.2 231 388.7 236L578.6 362C589.8 369.4 589.8 381.9 578.6 389.3L553.2 406C516 347 450.2 307.9 375.1 307.9C300 307.9 234.8 347.1 197 406L171.6 389.2C160.3 381.2 160.3 368.8 172.1 361.3ZM375.1 360.1C318.6 360.1 269 389.9 241.1 434.6L284.5 463.8C303.1 433.4 336 412.9 374.5 412.9C412.4 412.9 445.9 433.4 464.5 463.8L507.9 434.6C481.2 389.9 431.5 360.1 375.1 360.1ZM375.1 465C355.2 465 337.9 476.2 328.6 492.3L357.8 511.5C362.8 515.2 368.4 517.7 374.6 517.7C381.4 517.7 387 515.2 391.4 511.5L420.6 492.3C412.9 476.8 394.9 465 375.1 465Z" fill="#F8F2EA"/>
<path fill-rule="evenodd" clip-rule="evenodd" d="M374.5 46C110.9 46 45 111.9 45 375.5C45 639.1 110.9 705 374.5 705C638.1 705 704 639.1 704 375.5C704 111.9 638.1 46 374.5 46Z" fill="#D6663E"/>
<path d="M374.5 436.207C341 436.207 313.827 408.938 313.827 375.552C313.827 342.062 341 314.896 374.5 314.896C408 314.896 435.173 342.062 435.173 375.552C435.173 408.938 408 436.207 374.5 436.207ZM544.535 404.857C551.126 403.865 556 398.203 556 391.538V359.462C556 352.797 551.126 347.134 544.535 346.143L516.522 341.927C511.211 341.127 506.938 337.23 505.244 332.133C503.151 325.837 500.621 319.701 497.654 313.755C495.259 308.954 495.518 303.185 498.699 298.865L515.53 276.008C519.478 270.646 518.916 263.203 514.207 258.496L491.492 235.787C486.78 231.077 479.333 230.519 473.972 234.474L451.208 251.272C446.888 254.459 441.114 254.723 436.315 252.316C430.393 249.346 424.283 246.801 418.014 244.726C412.878 243.026 408.928 238.738 408.123 233.388L403.918 205.464C402.926 198.874 397.263 194 390.599 194H358.505C351.841 194 346.178 198.874 345.186 205.464L340.969 233.464C340.17 238.775 336.271 243.048 331.174 244.741C324.878 246.833 318.741 249.361 312.794 252.327C307.99 254.722 302.216 254.459 297.896 251.272L275.132 234.474C269.771 230.519 262.324 231.077 257.612 235.787L234.793 258.599C230.084 263.307 229.522 270.75 233.47 276.112L250.277 298.936C253.47 303.272 253.717 309.067 251.306 313.882C248.351 319.785 245.831 325.905 243.745 332.213C242.056 337.322 237.779 341.233 232.458 342.033L204.465 346.246C197.874 347.238 193 352.901 193 359.566V391.642C193 398.306 197.874 403.969 204.465 404.961L232.458 409.174C237.779 409.975 242.056 413.886 243.745 418.995C245.83 425.299 248.348 431.415 251.301 437.314C253.714 442.135 253.463 447.937 250.261 452.275L233.49 474.989C229.532 480.351 230.09 487.802 234.804 492.515L257.508 515.213C262.22 519.923 269.668 520.481 275.028 516.526L297.792 499.728C302.112 496.541 307.886 496.277 312.685 498.684C318.607 501.654 324.717 504.199 330.986 506.274C336.122 507.974 340.072 512.262 340.877 517.612L345.082 545.536C346.074 552.126 351.737 557 358.401 557H390.495C397.159 557 402.822 552.126 403.814 545.536L408.019 517.612C408.825 512.262 412.774 507.974 417.91 506.274C424.183 504.198 430.297 501.651 436.222 498.678C441.015 496.274 446.782 496.534 451.101 499.712L473.975 516.546C479.336 520.491 486.774 519.929 491.481 515.223L514.207 492.504C518.916 487.797 519.478 480.354 515.53 474.992L498.723 452.168C495.53 447.831 495.283 442.037 497.705 437.227C500.664 431.349 503.201 425.255 505.27 418.975C506.965 413.827 511.258 409.865 516.618 409.059L544.535 404.857Z" fill="#F8F2EA"/>
</svg>
