<?xml version="1.0" encoding="utf-8"?>
<!-- Generator: Adobe Illustrator 19.0.0, SVG Export Plug-In . SVG Version: 6.00 Build 0)  -->
<svg version="1.1" id="Layer_1" xmlns="http://www.w3.org/2000/svg" xmlns:xlink="http://www.w3.org/1999/xlink" x="0px" y="0px"
	 width="750px" height="750px" viewBox="-403.4 -77 750 750" style="enable-background:new -403.4 -77 750 750;"
	 xml:space="preserve">
<style type="text/css">
	.st0{fill:#1E2733;}
	.st1{fill:#D9AF7D;}
</style>
<circle class="st0" cx="-28.5" cy="298" r="375"/>
<g id="Homepage-Design-Version-A">
	<g id="Ultra-Wide-_x28_nh_x29_" transform="translate(-389.000000, -538.000000)">
		<path id="Fill-10" class="st1" d="M360.6,894.5c-32.3,0-58.5-26.3-58.5-58.5c0-32.3,26.2-58.5,58.5-58.5s58.5,26.2,58.5,58.5
			C419.1,868.2,392.9,894.5,360.6,894.5z M535.6,862.6v-53.3l-46.5-7c-3.1-11.7-7.7-22.9-13.8-33.4l27.9-37.9l-37.7-37.7l-37.8,27.9
			c-10.5-6.1-21.7-10.8-33.4-13.8l-7-46.5H334l-7,46.5c-11.7,3.1-22.9,7.7-33.4,13.8l-37.8-27.9L218,731.1l27.9,37.9
			c-6.1,10.4-10.7,21.6-13.8,33.4l-46.5,7v53.3l46.5,7c3.1,11.8,7.7,23,13.8,33.4L218,940.9l37.7,37.7l37.8-27.9
			c10.5,6.1,21.7,10.8,33.4,13.8l7,46.5h53.3l7-46.5c11.7-3,22.9-7.7,33.4-13.8l37.9,27.9l37.7-37.7L475.3,903
			c6.1-10.4,10.8-21.6,13.8-33.4L535.6,862.6z"/>
	</g>
</g>
</svg>
