<?xml version="1.0" encoding="utf-8"?>
<!-- Generator: Adobe Illustrator 19.0.0, SVG Export Plug-In . SVG Version: 6.00 Build 0)  -->
<svg version="1.1" id="Layer_1" xmlns="http://www.w3.org/2000/svg" xmlns:xlink="http://www.w3.org/1999/xlink" x="0px" y="0px"
	 width="750px" height="750px" viewBox="0 0 750 750" style="enable-background:new 0 0 750 750;" xml:space="preserve">
<style type="text/css">
	.st0{fill:#FFFFFF;}
</style>
<path class="st0" d="M375,0C167.9,0,0,167.9,0,375s167.9,375,375,375s375-167.9,375-375S582.1,0,375,0z M637,413.8L567.4,424
	c-4.5,17.2-11.5,33.5-20.7,48.7l41.8,55.2l-56.4,54.9l-56.7-40.6c-15.7,8.9-32.5,15.7-50,20.1L414.8,630H335l-10.5-67.7
	c-17.5-4.4-34.3-11.2-50-20.1l-56.6,40.6l-56.4-54.9l41.8-55.1c-9.1-15.2-16-31.5-20.7-48.7L113,414v-77.6l69.6-10.2
	c4.6-17.2,11.5-33.5,20.7-48.7l-41.8-55.2l56.6-55.1l56.6,40.6c15.7-8.9,32.5-15.6,50-20.1l10.5-67.7H415l10.5,67.7
	c17.5,4.4,34.3,11.2,50,20.1l56.6-40.6l56.4,54.9l-41.8,55.2c9.1,15.3,16,31.6,20.7,48.7l69.6,10.2V413.8z M462.6,375.1
	c0,46.9-39.2,85.2-87.6,85.2c-48.4,0-87.6-38.3-87.6-85.2c0-47.1,39.2-85.2,87.6-85.2C423.4,289.9,462.6,328,462.6,375.1z"/>
</svg>
