<?xml version="1.0" encoding="UTF-8"?>
<svg
   viewBox="0 0 587.85999 587.85999"
   xmlns="http://www.w3.org/2000/svg">
  <path
     class="i"
     d="m 338.67,587.86 h -89.48 l -11.71,-77.77 c -20.07,-5.02 -38.47,-12.54 -56.03,-23.41 L 117.9,533.51 54.35,469.96 101.18,406.41 C 91.15,388.85 82.78,370.45 77.77,350.38 L 0,338.67 v -89.48 l 77.77,-11.71 c 5.02,-20.07 13.38,-38.47 23.41,-56.03 L 54.35,117.9 117.9,54.35 l 63.55,46.83 c 17.56,-10.03 35.96,-18.4 56.03,-23.41 L 249.19,0 h 89.48 l 11.71,77.77 c 19.23,5.02 38.47,12.54 56.03,23.41 l 63.55,-46.83 63.55,63.55 -46.83,63.55 c 10.03,17.56 18.4,35.96 23.41,56.03 l 77.77,11.71 v 89.48 l -77.77,11.71 c -5.02,19.23 -12.54,38.47 -23.41,56.03 l 46.83,63.55 -63.55,63.55 -63.55,-46.83 c -17.56,10.03 -36.79,18.4 -56.03,23.41 z M 293.51,196.51 c -54.35,0 -97.84,44.32 -97.84,97.84 0,53.52 44.32,97.84 97.84,97.84 53.52,0 97.84,-44.32 97.84,-97.84 0,-53.52 -43.48,-97.84 -97.84,-97.84"
     id="path824" />
</svg>
