<?xml version="1.0" encoding="UTF-8"?>
<svg id="e" xmlns="http://www.w3.org/2000/svg" viewBox="0 0 1000 1000">
  <defs>
    <style>.shipstation_logo_j{fill:#fff;}.shipstation_logo_j,.shipstation_logo_k{stroke-width:0px;}.shipstation_logo_k{fill:url(#shipstation_logo_f);}</style>
    <radialGradient id="shipstation_logo_f" cx="970.38" cy="921.11" fx="970.38" fy="921.11" r="1225.76" gradientUnits="userSpaceOnUse"><stop offset=".03" stop-color="#bd9664"/><stop offset=".12" stop-color="#95836a"/><stop offset=".23" stop-color="#6c6f71"/><stop offset=".31" stop-color="#526375"/><stop offset=".36" stop-color="#495f77"/><stop offset=".42" stop-color="#3f5267"/><stop offset=".54" stop-color="#27323f"/><stop offset=".61" stop-color="#171d25"/></radialGradient>
  </defs>
  <rect class="shipstation_logo_k" x="38.38" y="38.38" width="923.24" height="923.24" rx="255.52" ry="255.52"/>
  <path class="shipstation_logo_j" d="M544.74,793.93h-89.48l-11.71-77.77c-20.07-5.02-38.47-12.54-56.03-23.41l-63.55,46.83-63.55-63.55,46.83-63.55c-10.03-17.56-18.4-35.96-23.41-56.03l-77.77-11.71v-89.48l77.77-11.71c5.02-20.07,13.38-38.47,23.41-56.03l-46.83-63.55,63.55-63.55,63.55,46.83c17.56-10.03,35.96-18.4,56.03-23.41l11.71-77.77h89.48l11.71,77.77c19.23,5.02,38.47,12.54,56.03,23.41l63.55-46.83,63.55,63.55-46.83,63.55c10.03,17.56,18.4,35.96,23.41,56.03l77.77,11.71v89.48l-77.77,11.71c-5.02,19.23-12.54,38.47-23.41,56.03l46.83,63.55-63.55,63.55-63.55-46.83c-17.56,10.03-36.79,18.4-56.03,23.41l-11.71,77.77ZM499.58,402.58c-54.35,0-97.84,44.32-97.84,97.84s44.32,97.84,97.84,97.84,97.84-44.32,97.84-97.84c0-53.52-43.48-97.84-97.84-97.84"/>
</svg>
